<svg enable-background="new 0 0 512 512" height="512" viewBox="0 0 512 512" width="512" xmlns="http://www.w3.org/2000/svg"><path d="m15.079 322.648c-4.059 0-7.502 1.442-10.338 4.379-2.836 2.915-4.241 6.441-4.241 10.608 0 4.059 1.405 7.572 4.241 10.533s6.279 4.449 10.338 4.449c4.163 0 7.706-1.488 10.621-4.449 2.924-2.961 4.375-6.475 4.375-10.533 0-4.067-1.451-7.594-4.375-10.551-2.915-2.972-6.458-4.436-10.621-4.436zm178.479-29.317c0 13.166.458 22.501 1.339 27.962h-.52c-1.322-2.55-3.913-6.795-7.71-12.717l-95.213-149.194h-28.931v190.185h22.29v-137.41c0-13.341-.35-22.057-1.053-26.115h.803c1.676 4.333 3.655 8.3 5.955 11.938l98.145 151.586h27.047v-190.184h-22.152zm86.538-30.374h68.694v-20.156h-68.694v-63.263h74.146v-20.156h-96.419v190.185h100.789v-20.157h-78.517v-66.453zm99.45-83.419h54.884v170.028h22.286v-170.028h54.784v-20.156h-131.954z"/></svg>